<?xml version="1.0" encoding="UTF-8"?>
<svg id="Layer_1" xmlns="http://www.w3.org/2000/svg" version="1.1" viewBox="0 0 512 512">
  <!-- Generator: Adobe Illustrator 30.4.0, SVG Export Plug-In . SVG Version: 2.1.4 Build 226)  -->
  <defs>
    <style>
      .st0 {
        fill: #faffe0;
      }
    </style>
  </defs>
  <path class="st0" d="M399.2,256h-100.5c-23.6,0-42.7-19.1-42.7-42.7v-100.8c0-19.9-9.1-38.7-24.9-50.8-14.9-11.8-34.5-16-52.9-11.4C52.8,81.4-23.7,208.3,7.5,333.8c21.9,88.4,93.1,156,182.5,173.3,122.1,23.4,241.3-52.5,271.7-173.1,4.6-18.5.4-38.1-11.4-53-12.3-15.7-31.1-24.9-51.1-25ZM420.3,323.6c-25.5,102.6-129.3,165.1-231.8,139.6-102.6-25.5-165.1-129.3-139.6-231.8,17.1-68.8,70.9-122.6,139.7-139.6,5.7-1.4,11.8,0,16.3,3.7,5.4,4.1,8.5,10.4,8.5,17.2v100.7c0,47.1,38.2,85.3,85.3,85.3h100.5c6.8,0,13.2,3.2,17.4,8.5,3.7,4.6,5,10.7,3.5,16.4h0Z"/>
  <path class="st0" d="M504.6,158.8C484.6,85.4,427.2,28,353.7,7.9c-3.8-1-7.7-1.5-11.6-1.5-23.6-.2-42.8,18.7-43.1,42.3,0,.1,0,.3,0,.4v100.3c0,35.3,28.7,64,64,64h100.7c23.7-.2,42.7-19.6,42.4-43.2,0-3.8-.6-7.6-1.6-11.2ZM451.3,170.7h-88.3c-11.8,0-21.3-9.6-21.3-21.3l-.2-100.1c.2-.1.3-.2.5-.2h.6c59.1,16.1,105.2,62.4,121.1,121.6h-12.4Z"/>
</svg>