<?xml version="1.0" encoding="UTF-8"?>
<svg id="Layer_1" xmlns="http://www.w3.org/2000/svg" version="1.1" viewBox="0 0 512 512">
  <!-- Generator: Adobe Illustrator 30.4.0, SVG Export Plug-In . SVG Version: 2.1.4 Build 226)  -->
  <defs>
    <style>
      .st0 {
        fill: #faffe0;
      }
    </style>
  </defs>
  <path class="st0" d="M512,490.7c0,11.8-9.6,21.3-21.3,21.3H64c-35.3,0-64-28.7-64-64V21.3C0,9.6,9.6,0,21.3,0s21.3,9.6,21.3,21.3v426.7c0,11.8,9.6,21.3,21.3,21.3h426.7c11.8,0,21.3,9.6,21.3,21.3ZM448,106.7h-85.3c-11.8,0-21.3,9.6-21.3,21.3s9.6,21.3,21.3,21.3h76l-103.6,100.4c-8,8.1-22.1,8.1-30.1,0-.9-.9-26.4-19.1-26.4-19.1-24.3-22.9-65.6-22-88.8,1.1l-97.8,94.2c-8.5,8.2-8.7,21.7-.6,30.2,4.2,4.4,9.8,6.5,15.4,6.5s10.7-2,14.8-6l98.1-94.5c8-8.1,22.1-8.1,30.1,0,.9.9,26.4,19.1,26.4,19.1,24.3,22.9,65.6,22.1,88.8-1.2l104.3-101.1v76.9c0,11.8,9.6,21.3,21.3,21.3s21.3-9.6,21.3-21.3v-85.3c0-35.3-28.7-64-64-64h0Z"/>
</svg>