<?xml version="1.0" encoding="UTF-8"?>
<svg id="Layer_1" xmlns="http://www.w3.org/2000/svg" version="1.1" viewBox="0 0 512 512">
  <!-- Generator: Adobe Illustrator 30.4.0, SVG Export Plug-In . SVG Version: 2.1.4 Build 226)  -->
  <defs>
    <style>
      .st0 {
        fill: #faffe0;
      }
    </style>
  </defs>
  <path class="st0" d="M490.7,469.3H106.7c-35.3,0-64-28.7-64-64V21.3C42.7,9.6,33.1,0,21.3,0S0,9.6,0,21.3v384c0,58.9,47.8,106.6,106.7,106.7h384c11.8,0,21.3-9.6,21.3-21.3s-9.6-21.3-21.3-21.3Z"/>
  <path class="st0" d="M128,426.7c11.8,0,21.3-9.6,21.3-21.3v-149.3c0-11.8-9.6-21.3-21.3-21.3s-21.3,9.6-21.3,21.3v149.3c0,11.8,9.6,21.3,21.3,21.3Z"/>
  <path class="st0" d="M213.3,213.3v192c0,11.8,9.6,21.3,21.3,21.3s21.3-9.6,21.3-21.3v-192c0-11.8-9.6-21.3-21.3-21.3s-21.3,9.6-21.3,21.3Z"/>
  <path class="st0" d="M320,277.3v128c0,11.8,9.6,21.3,21.3,21.3s21.3-9.6,21.3-21.3v-128c0-11.8-9.6-21.3-21.3-21.3s-21.3,9.6-21.3,21.3Z"/>
  <path class="st0" d="M426.7,192v213.3c0,11.8,9.6,21.3,21.3,21.3s21.3-9.6,21.3-21.3v-213.3c0-11.8-9.6-21.3-21.3-21.3s-21.3,9.6-21.3,21.3Z"/>
  <path class="st0" d="M128,192c5.7,0,11.1-2.2,15.1-6.3l76.5-76.5c8.4-8,21.7-8,30.2,0l46.3,46.3c25,25,65.5,25,90.5,0l119.2-119.2c8.2-8.5,8-22-.5-30.2-8.3-8-21.4-8-29.6,0l-119.2,119.1c-8.3,8.3-21.8,8.3-30.2,0l-46.3-46.3c-25-25-65.5-25-90.5,0l-76.5,76.5c-8.3,8.3-8.3,21.8,0,30.2,4,4,9.4,6.2,15.1,6.2Z"/>
</svg>