<?xml version="1.0" encoding="UTF-8"?>
<svg id="Layer_1" data-name="Layer 1" xmlns="http://www.w3.org/2000/svg" viewBox="0 0 511.61 461.65">
  <g>
    <path d="M69.67,284.68c2.88-.5,4.46-.91,7.2-1.95-10.24,26.28-8.91,54.61-2.15,81.47-1.13-31.19,9.04-61.26,22.04-89.13,2.95-1.13,4.45-1.7,7.53-2.85-14.55,31.59-32.65,78.08-20.3,113.42-2.01-.13-2.99-.26-4.91-.71-20.56-27.6-20.25-69.23-9.41-100.24Z"/>
    <path d="M118.93,266.91c2.64-.93,3.98-1.39,6.7-2.3-4.36,32.36-5.34,73.48,12.57,102.52-4,1.93-5.94,2.88-9.71,4.68-3.59-6.05-5.15-9.92-7.68-18.53-8.23,3.36-12.1,4.93-19.45,7.37-.43,10-.25,14.59,1.09,22.13-3.05.97-4.53,1.37-7.41,1.96-8.28-38.31,8.56-83.63,23.88-117.82ZM117.24,337.89c-2.64-15.4-3.03-31.25-2.03-46.81-5.32,17.09-9.72,34.17-12.2,51.93,5.48-1.85,8.32-2.9,14.23-5.12ZM136.24,244.21c-1.97,4.27-4.03,8.1-6.34,11.36-2.32,3.27-4.38,5.27-6.2,5.91-1.82.63-2.81-.3-2.85-2.67-.04-2.37.97-5.76,3.12-10.04,1.05-2.09,2.23-4.06,3.5-5.93,1.27-1.87,2.54-3.49,3.8-4.88,1.26-1.39,2.47-2.56,3.62-3.52,1.14-.96,2.14-1.6,2.98-1.92,1.65-.63,2.22.08,1.86,2.16-.36,2.09-1.51,5.25-3.48,9.53ZM133.4,245.19c1.03-2.19,1.6-3.86,1.7-5.06.1-1.19-.27-1.62-1.13-1.3-.87.32-2.01,1.31-3.42,2.98-1.41,1.68-2.69,3.59-3.77,5.78-1.08,2.19-1.62,3.93-1.62,5.2,0,1.27.46,1.76,1.38,1.44.91-.32,2.02-1.35,3.32-3.05,1.31-1.7,2.47-3.71,3.54-5.99Z"/>
    <path d="M150.17,274.22c-6.26,1.79-9.31,2.73-15.24,4.61,1.64-7.7,2.6-11.51,4.79-18.75,12.86-3.93,25.91-7.27,39.1-9.87-1.35,6.75-1.93,10.3-2.92,17.46-6.76,1.48-10.07,2.3-16.51,4-4.23,28.29-7.56,58.13-2.26,86.55-3.9,1.75-5.8,2.64-9.5,4.39-5.91-28.96-2.19-59.58,2.54-88.39Z"/>
    <path d="M185.44,248.98c5.76-1.01,8.69-1.47,14.64-2.24,2.66,23.6,7.06,46.94,15.76,69.14,5.21-23.78,9.81-47.68,14.59-71.55,6.24-.17,9.44-.18,15.82,0,3.75,29.77,6.94,59.99,13.63,89.28-5.52.03-8.36.14-13.73.51-4.81-24-6.68-48.69-8.74-73.03-.07,0-.11,0-.18,0-3.93,25.36-7.62,51.1-14.41,75.9-3.63.65-5.42,1-8.93,1.77-13.92-21.24-17.89-48.91-21.24-73.45-.07.01-.1.02-.16.03-1.89,26.1-3.33,52.96.62,78.97-4.41,1.38-6.56,2.11-10.76,3.63-4.99-32.56-1.85-66.62,3.1-98.97Z"/>
    <path d="M278.37,247.1c3.52.5,5.27.78,8.75,1.37,18.24,33.27,34.85,67.75,54.96,99.96-5.14-1.83-7.78-2.71-13.19-4.36-3.84-5.76-6.01-9.38-10.57-17.4-9.98-2.62-20.37-4.67-30.6-5.99-.92,6.81-1.52,9.79-2.97,14.21-6.09-.66-9.2-.9-15.54-1.14,10.47-26.82,9.81-58.4,9.17-86.66ZM310.46,312.4c-7.4-14.23-14.46-28.64-21.53-43.04.74,12.98.83,26.01.06,38.99,8.82,1.3,13.11,2.14,21.47,4.04Z"/>
    <path d="M316.96,255.05c7.44,1.99,11.09,3.08,18.22,5.39,2.46.8,5.06,2.08,7.8,3.85,2.75,1.77,5.58,4.2,8.52,7.3,2.93,3.1,5.91,6.97,8.88,11.62,2.97,4.65,5.87,10.3,8.51,16.83,3.38,8.39,4.84,14.86,4.58,19.39-.26,4.53-2.35,6.37-6.11,5.82,8.11,14.54,16.22,29.11,23.19,44.24-4.18-2.04-6.35-3.1-10.84-5.23-6.97-13.87-14.42-27.48-21.93-41.07-2.99-1.12-4.5-1.68-7.58-2.78,3.5,11.54,6.95,23.07,9.49,34.86-4.16-1.74-6.29-2.61-10.65-4.28-7.94-32.82-19.11-64.81-32.07-95.95ZM352.88,307.23c1.44.52,2.83.91,4.15,1.18,1.33.27,2.4.13,3.2-.43.8-.56,1.19-1.73,1.13-3.52-.06-1.8-.81-4.58-2.31-8.35-1.32-3.34-2.77-6.17-4.27-8.46-1.5-2.29-3-4.13-4.49-5.53-1.48-1.39-2.93-2.47-4.34-3.23-1.42-.76-2.73-1.35-3.94-1.76-3.31-1.11-4.98-1.66-8.37-2.71,3.95,9.95,7.83,19.89,11.29,30.02,3.22,1.09,4.81,1.65,7.95,2.78Z"/>
    <path d="M361.98,270.18c3.37,1.36,5.04,2.05,8.31,3.45,8.33,16.1,15.57,32.37,21.98,49.34.16.07.24.1.41.17.87-13.76-.37-27.67-3.71-41.05,4.07,1.95,6.06,2.93,9.91,4.88,3.38,15.06,4.62,28.77,4.03,44.2,10.54,17.53,22.33,35.76,27.92,55.65-3.12-.75-4.79-1.29-8.35-2.62-6.26-18.26-16.72-35.07-26.49-51.57-.19-.08-.28-.12-.47-.2,4.33,14.46,8.77,28.9,9.46,44.09-3.08-1.48-4.68-2.26-7.98-3.87-3.23-35.71-19.18-70.85-35.01-102.46Z"/>
    <path d="M434.58,321.27c-2.03-3.05-3.99-5.5-5.79-7.33-1.8-1.82-3.34-3.05-4.58-3.63-.74-.34-1.33-.43-1.75-.24-.43.19-.64.72-.63,1.6,0,.88.29,2.16.82,3.83.53,1.67,1.37,3.76,2.48,6.26,1.66,3.74,3.25,6.74,4.87,8.99,1.62,2.25,3.29,4.26,5.01,6.03,1.72,1.77,3.48,3.46,5.26,5.04,1.78,1.58,3.55,3.51,5.23,5.73,1.68,2.22,3.28,4.95,4.61,8.05,1.33,3.11,2.79,6.54,3,10.92.2,3.96-.88,7.66-1.8,10.3-.92,2.64-2.14,4.73-3.42,6.44-1.29,1.71-2.62,3.03-3.94,4-1.31.97-2.54,1.56-3.73,1.73-1.5.22-2.8-.26-4.09-1.58-1.29-1.33-2.36-3.71-3.62-7.59,1.88-3.31,2.7-5.17,4.07-9.14.98,2.93,1.93,5.09,2.98,6.59s2.07,2.2,3.17,2.21c.58,0,1.17-.2,1.77-.62s1.16-1.03,1.67-1.86c.51-.83.94-1.87,1.24-3.17.3-1.3.44-2.8.33-4.57-.16-2.88-.82-5.26-1.79-7.03-.97-1.77-2.17-3.39-3.55-4.85-1.38-1.46-2.93-2.97-4.65-4.52-1.72-1.56-3.51-3.62-5.42-6.21-1.91-2.59-3.93-5.94-6.18-10.11s-4.66-9.61-7.56-16.32c-2.53-5.86-4.57-10.8-5.93-14.68-1.35-3.88-2.22-6.88-2.5-8.99-.28-2.1-.05-3.35.76-3.78.81-.43,2.02-.15,3.66.78,1.88,1.07,4.22,2.93,6.98,5.5,2.76,2.57,5.85,6.22,9.69,10.13,1.32,4.98,2.23,7.14,3.31,12.1Z"/>
  </g>
  <g>
    <path d="M121.72,387c5.12-2.12,7.62-3.14,12.48-5.13-4.61,8.72-7.5,18.55-10.64,27.81.21-.02.32-.03.53-.05,11.91-13.12,23.41-27.41,37.23-38.64,5.79-2.26,8.57-3.33,13.97-5.32-15.29,13.6-27.5,30.88-40.53,46.57,5,16.18,10.04,36.36,23.35,48.11-6.25.04-9.38.07-15.64.12-12.49-9.84-16.98-28.16-20.79-42.67-.25,0-.37,0-.61.01-3.18,11.82-8.31,25.44-5.9,37.91-3.85-1.73-5.64-2.78-8.84-5.14-5.87-18.04,7.16-47.74,15.38-63.58Z"/>
    <path d="M167.22,411.29c2-9.58,4.79-18.23,7.98-25.47,3.18-7.23,6.53-12.79,10-17.09,3.47-4.3,7-7.3,10.66-9.64,3.66-2.34,7.34-3.92,11.02-5.02,3.75-1.12,6.96-1.6,9.68-.94s4.89,2.42,6.58,6.05c1.69,3.63,2.86,9.04,3.58,16.6.71,7.56.77,17.15.36,27.86-.35,9.2-1.23,18.98-3.18,28.05-1.71,7.92-3.94,13.98-6.76,18.43-2.83,4.45-6.17,7.23-10.09,9.01-3.92,1.79-8.31,2.49-13.16,2.52-4.79.03-9.34-.63-13.45-2.16-4.12-1.54-7.65-3.91-10.33-7.71-2.68-3.8-4.43-8.99-5.01-15.87-.58-6.88.17-15.26,2.12-24.62ZM178.47,408.2c-1.22,6.61-1.78,12.66-1.61,17.97.17,5.3,1.02,9.65,2.47,13.11s3.46,5.97,5.92,7.71c2.45,1.74,5.32,2.52,8.51,2.43,3.19-.09,6.11-1.03,8.76-3.02,2.65-1.98,4.95-4.79,6.92-8.65,1.97-3.86,3.58-8.68,4.88-14.52,1.3-5.85,2.18-12.48,2.73-19.61.51-6.63.6-12.72.28-18.03-.32-5.32-.99-9.61-2.03-12.94-1.04-3.33-2.44-5.53-4.24-6.85-1.8-1.31-3.95-1.58-6.53-.96-2.58.61-5.11,1.98-7.62,4.18-2.52,2.2-4.94,5.06-7.27,8.77s-4.51,8.13-6.46,13.33c-1.96,5.2-3.57,10.94-4.7,17.08Z"/>
    <path d="M238.24,348.51c3.04-.4,4.55-.56,7.54-.81-1.19,32.7-.42,65.61,1.36,98.26,10.23-.04,15.34-.02,25.55.1.91,6.78,1.37,9.75,2.25,14-12.5-.02-25-.03-37.5-.02-3.71-36.53-2.1-74.98.8-111.54Z"/>
    <path d="M268.85,347.52c2.95.21,4.43.35,7.41.7,4.84,32.74,9.2,65.54,14.94,98.15,10.23.23,15.35.38,25.64.75,1.67,6.46,2.44,9.25,3.7,13.1-12.5-.07-25.01-.11-37.51-.14-7.54-36.94-10.34-75.1-14.18-112.56Z"/>
    <path d="M300.18,352.75c10.78,2.7,21.22,6.36,31.69,10.05,1.49,2.98,2.49,5.36,4.78,11.03-10.27-3.12-15.12-4.46-24.52-6.67,2.8,9.37,5.48,18.77,8.13,28.18,9.77,1.56,14.75,2.48,25.07,4.63,2.88,7.81,4.38,11.95,7.28,19.84-10.78-1.63-16.03-2.33-26.4-3.53,3.04,10.57,6.05,21.14,9.32,31.64,10.44.48,20.89,1.06,31.32,1.73,2.25,5.64,3.23,8,4.65,10.95-14.29-.12-28.58-.23-42.88-.32-11.51-35.25-18.06-71.95-28.45-107.52Z"/>
    <path d="M342.49,366.83c5.13,2.01,7.84,3.08,13.35,5.33,24.38,20.78,43.09,48.18,64.63,71.76.05,0,.07,0,.11-.01-10.69-19.43-20.14-41.64-34.37-58.8,4.73,2.07,7.14,3.14,12.1,5.35,13.34,19.23,22.89,42.24,33.17,63.21-.18,2.25-1.19,3.06-4.4,4.29-26.91-13.65-47.08-48.28-65.6-70.99-.07-.02-.11-.03-.18-.05,11.77,24.44,21.64,50.36,35.3,73.83-5.73.02-9.71-.02-14.15-.06-14.7-30.62-24.11-63.78-39.95-93.86Z"/>
  </g>
</svg>